<svg width="22" height="14" viewBox="0 0 22 14" fill="none" xmlns="http://www.w3.org/2000/svg">
<path d="M21.1215 6.99994C21.1215 10.487 18.3 13.3138 14.8195 13.3138C11.3391 13.3138 8.51758 10.487 8.51758 6.99994C8.51758 3.51286 11.3391 0.686035 14.8195 0.686035C18.3 0.686035 21.1215 3.51286 21.1215 6.99994Z" fill="#F79F1A"/>
<path d="M13.3461 6.99994C13.3461 10.487 10.5246 13.3138 7.04416 13.3138C3.56367 13.3138 0.742188 10.487 0.742188 6.99994C0.742188 3.51286 3.56367 0.686035 7.04416 0.686035C10.5246 0.686035 13.3461 3.51286 13.3461 6.99994Z" fill="#EA001B"/>
<path d="M10.9319 2.02954C9.46144 3.18541 8.51758 4.98156 8.51758 6.9993C8.51758 9.01704 9.46144 10.8146 10.9319 11.9704C12.4023 10.8146 13.3461 9.01704 13.3461 6.9993C13.3461 4.98156 12.4023 3.18541 10.9319 2.02954Z" fill="#FF5F01"/>
</svg>
