<svg width="12" height="14" viewBox="0 0 12 14" fill="none" xmlns="http://www.w3.org/2000/svg">
<path d="M3.14977 13.0949L3.37641 11.6554L2.87157 11.6437H0.460938L2.1362 1.02141C2.1414 0.98934 2.1583 0.95944 2.183 0.938207C2.2077 0.916973 2.23934 0.905273 2.27227 0.905273H6.33694C7.68634 0.905273 8.61757 1.18607 9.10377 1.74031C9.33171 2.00031 9.47687 2.27201 9.54707 2.57101C9.62074 2.88474 9.62204 3.25957 9.55011 3.71674L9.54491 3.75011V4.04304L9.77284 4.17217C9.96481 4.27401 10.1173 4.39057 10.2343 4.52404C10.4293 4.74634 10.5554 5.02887 10.6087 5.36384C10.6638 5.70834 10.6456 6.11827 10.5554 6.58237C10.4514 7.11624 10.2833 7.58121 10.0562 7.96167C9.84737 8.31224 9.58131 8.60301 9.26541 8.82834C8.96381 9.04241 8.60544 9.2049 8.20027 9.3089C7.80767 9.41117 7.36004 9.46274 6.86907 9.46274H6.55274C6.32654 9.46274 6.10684 9.5442 5.93437 9.69024C5.76147 9.8393 5.64707 10.043 5.61197 10.2657L5.58814 10.3953L5.18774 12.9324L5.16954 13.0256C5.16477 13.0551 5.15654 13.0698 5.14441 13.0798C5.13357 13.0889 5.11797 13.0949 5.10281 13.0949H3.14977Z" fill="#253B80"/>
<path d="M9.9875 3.78394C9.97536 3.8615 9.9615 3.9408 9.9459 4.02227C9.40986 6.77437 7.576 7.7251 5.23383 7.7251H4.0413C3.75486 7.7251 3.5135 7.9331 3.46886 8.21564L2.8583 12.0879L2.6854 13.1855C2.65636 13.371 2.79936 13.5383 2.98656 13.5383H5.10166C5.35213 13.5383 5.5649 13.3563 5.60433 13.1093L5.62513 13.0018L6.02336 10.4746L6.04893 10.3359C6.08793 10.0881 6.30113 9.90607 6.5516 9.90607H6.86793C8.91716 9.90607 10.5214 9.07407 10.9902 6.66647C11.1861 5.6607 11.0847 4.8209 10.5664 4.23027C10.4096 4.05217 10.215 3.9044 9.9875 3.78394Z" fill="#179BD7"/>
<path d="M9.42665 3.56032C9.34475 3.53649 9.26025 3.51482 9.17359 3.49532C9.08649 3.47625 8.99722 3.45935 8.90535 3.44462C8.58382 3.39262 8.23152 3.36792 7.85409 3.36792H4.66822C4.58978 3.36792 4.51525 3.38569 4.44852 3.41775C4.30162 3.48839 4.19242 3.62749 4.16598 3.79779L3.48825 8.09038L3.46875 8.21562C3.51338 7.93308 3.75475 7.72508 4.04118 7.72508H5.23372C7.57589 7.72508 9.40975 6.77392 9.94579 4.02225C9.96182 3.94079 9.97525 3.86149 9.98739 3.78392C9.85175 3.71199 9.70485 3.65045 9.54669 3.59802C9.50769 3.58502 9.46739 3.57245 9.42665 3.56032Z" fill="#222D65"/>
<path d="M4.4486 3.4183C4.51576 3.38624 4.58986 3.36847 4.6683 3.36847H7.85416C8.2316 3.36847 8.5839 3.39317 8.90543 3.44517C8.9973 3.4599 9.08656 3.4768 9.17366 3.49587C9.26033 3.51537 9.34483 3.53704 9.42673 3.56087C9.46746 3.573 9.50776 3.58557 9.5472 3.59814C9.70536 3.65057 9.85226 3.71254 9.9879 3.78404C10.1474 2.767 9.9866 2.07454 9.4367 1.4475C8.83046 0.757203 7.7363 0.46167 6.3362 0.46167H2.27153C1.98553 0.46167 1.74156 0.66967 1.69736 0.952637L0.00432849 11.6841C-0.0290382 11.8965 0.134762 12.088 0.348829 12.088H2.85826L3.48833 8.0905L4.16606 3.7979C4.1925 3.6276 4.3017 3.4885 4.4486 3.4183Z" fill="#253B80"/>
</svg>
