<svg width="29" height="10" viewBox="0 0 29 10" fill="none" xmlns="http://www.w3.org/2000/svg">
<path fill-rule="evenodd" clip-rule="evenodd" d="M14.8652 3.31291C14.8488 4.61625 16.0175 5.34361 16.8978 5.77603C17.8023 6.21976 18.1061 6.50426 18.1027 6.90101C18.0958 7.50831 17.3811 7.77628 16.7122 7.78672C15.5769 7.8045 14.904 7.48704 14.3716 7.23586L14.3275 7.2151L13.9072 9.19795C14.4484 9.4494 15.4504 9.66865 16.4896 9.67822C18.9286 9.67822 20.5245 8.4645 20.5331 6.58257C20.5388 5.1538 19.3648 4.53245 18.4254 4.03523C17.7945 3.7013 17.2694 3.42337 17.2784 2.99447C17.2862 2.67081 17.5926 2.32539 18.2641 2.23752C18.5963 2.19315 19.5138 2.15921 20.5538 2.64209L20.962 0.723624C20.4028 0.518291 19.6838 0.32166 18.7888 0.32166C16.493 0.32166 14.8782 1.55192 14.8652 3.31291ZM24.8846 0.486806C24.4392 0.486806 24.0638 0.748692 23.8964 1.15066L20.4121 9.53711L22.8494 9.53711L23.3345 8.18592H26.313L26.5944 9.53711H28.7426L26.8679 0.486806H24.8846ZM25.9283 6.33008L25.2249 2.93165L24.002 6.33008H25.9283ZM11.9095 0.486806L9.98828 9.53711H12.3108L14.2312 0.486806H11.9095ZM6.05623 6.64695L8.47372 0.48697H10.9128L7.14975 9.53727H4.69515L2.84298 2.31495C2.73078 1.87036 2.63326 1.70679 2.29148 1.51972C1.73306 1.21347 0.811295 0.927217 0 0.749726L0.0552371 0.48697H4.00728C4.51046 0.48697 4.96357 0.824552 5.07836 1.40923L6.05623 6.64695Z" fill="url(#paint0_linear_84_2114)"/>
<defs>
<linearGradient id="paint0_linear_84_2114" x1="0.0500977" y1="3.19949" x2="8.17433" y2="-8.24248" gradientUnits="userSpaceOnUse">
<stop stop-color="#222357"/>
<stop offset="1" stop-color="#254AA5"/>
</linearGradient>
</defs>
</svg>
