<svg width="27" height="27" viewBox="0 0 27 27" fill="none" xmlns="http://www.w3.org/2000/svg">
<path d="M10.3087 18.4167H16.6913V16.9167H10.3087V18.4167ZM16.6913 18.4167C19.1169 18.4167 21.0833 20.383 21.0833 22.8087H22.5833C22.5833 19.5546 19.9454 16.9167 16.6913 16.9167V18.4167ZM10.3087 16.9167C7.05462 16.9167 4.41667 19.5546 4.41667 22.8087H5.91667C5.91667 20.383 7.88305 18.4167 10.3087 18.4167V16.9167ZM16.9167 9.33333C16.9167 11.2203 15.387 12.75 13.5 12.75V14.25C16.2154 14.25 18.4167 12.0487 18.4167 9.33333H16.9167ZM13.5 12.75C11.613 12.75 10.0833 11.2203 10.0833 9.33333H8.58333C8.58333 12.0487 10.7846 14.25 13.5 14.25V12.75ZM10.0833 9.33333C10.0833 7.44636 11.613 5.91667 13.5 5.91667V4.41667C10.7846 4.41667 8.58333 6.61793 8.58333 9.33333H10.0833ZM13.5 5.91667C15.387 5.91667 16.9167 7.44636 16.9167 9.33333H18.4167C18.4167 6.61793 16.2154 4.41667 13.5 4.41667V5.91667ZM25.25 13.5C25.25 19.9893 19.9893 25.25 13.5 25.25V26.75C20.8178 26.75 26.75 20.8178 26.75 13.5H25.25ZM13.5 25.25C7.01065 25.25 1.75 19.9893 1.75 13.5H0.25C0.25 20.8178 6.18223 26.75 13.5 26.75V25.25ZM1.75 13.5C1.75 7.01065 7.01065 1.75 13.5 1.75V0.25C6.18223 0.25 0.25 6.18223 0.25 13.5H1.75ZM13.5 1.75C19.9893 1.75 25.25 7.01065 25.25 13.5H26.75C26.75 6.18223 20.8178 0.25 13.5 0.25V1.75Z" fill="#162237"/>
</svg>
