<svg width="25" height="27" viewBox="0 0 25 27" fill="none" xmlns="http://www.w3.org/2000/svg">
<path d="M1.2634 22.7026L0.516776 22.6315L1.2634 22.7026ZM23.9885 22.7026L24.7351 22.6315L23.9885 22.7026ZM22.8774 11.0359L22.1308 11.107L22.8774 11.0359ZM2.37451 11.0359L3.12113 11.107L2.37451 11.0359ZM6.04262 8.39579C6.04262 8.81001 6.3784 9.14579 6.79262 9.14579C7.20683 9.14579 7.54262 8.81001 7.54262 8.39579H6.04262ZM17.7093 8.39579C17.7093 8.81001 18.0451 9.14579 18.4593 9.14579C18.8735 9.14579 19.2093 8.81001 19.2093 8.39579H17.7093ZM7.54262 12.7708C7.54262 12.3566 7.20683 12.0208 6.79262 12.0208C6.3784 12.0208 6.04262 12.3566 6.04262 12.7708H7.54262ZM6.04262 12.7854C6.04262 13.1996 6.3784 13.5354 6.79262 13.5354C7.20683 13.5354 7.54262 13.1996 7.54262 12.7854H6.04262ZM19.2093 12.7708C19.2093 12.3566 18.8735 12.0208 18.4593 12.0208C18.0451 12.0208 17.7093 12.3566 17.7093 12.7708H19.2093ZM17.7093 12.7854C17.7093 13.1996 18.0451 13.5354 18.4593 13.5354C18.8735 13.5354 19.2093 13.1996 19.2093 12.7854H17.7093ZM5.27804 9.14579H19.9739V7.64579H5.27804V9.14579ZM22.1308 11.107L23.2419 22.7737L24.7351 22.6315L23.624 10.9648L22.1308 11.107ZM21.085 25.1458H4.16693V26.6458H21.085V25.1458ZM2.01002 22.7737L3.12113 11.107L1.62789 10.9648L0.516776 22.6315L2.01002 22.7737ZM4.16693 25.1458C2.88915 25.1458 1.88887 24.0457 2.01002 22.7737L0.516776 22.6315C0.311762 24.7841 2.00454 26.6458 4.16693 26.6458V25.1458ZM23.2419 22.7737C23.363 24.0457 22.3627 25.1458 21.085 25.1458V26.6458C23.2474 26.6458 24.9401 24.7841 24.7351 22.6315L23.2419 22.7737ZM19.9739 9.14579C21.0909 9.14579 22.0249 9.99503 22.1308 11.107L23.624 10.9648C23.4448 9.08296 21.8642 7.64579 19.9739 7.64579V9.14579ZM5.27804 7.64579C3.38766 7.64579 1.80711 9.08296 1.62789 10.9648L3.12113 11.107C3.22704 9.99503 4.161 9.14579 5.27804 9.14579V7.64579ZM7.54262 6.93746C7.54262 4.13001 9.8185 1.85413 12.626 1.85413V0.354126C8.99008 0.354126 6.04262 3.30158 6.04262 6.93746H7.54262ZM12.626 1.85413C15.4334 1.85413 17.7093 4.13001 17.7093 6.93746H19.2093C19.2093 3.30158 16.2618 0.354126 12.626 0.354126V1.85413ZM6.04262 6.93746V8.39579H7.54262V6.93746H6.04262ZM17.7093 6.93746V8.39579H19.2093V6.93746H17.7093ZM6.04262 12.7708V12.7854H7.54262V12.7708H6.04262ZM17.7093 12.7708V12.7854H19.2093V12.7708H17.7093Z" fill="#162237"/>
</svg>
